<?xml version="1.0" standalone="no"?>
<!DOCTYPE svg PUBLIC "-//W3C//DTD SVG 20010904//EN"
 "http://www.w3.org/TR/2001/REC-SVG-20010904/DTD/svg10.dtd">
<svg version="1.0" xmlns="http://www.w3.org/2000/svg"
 width="162.000000pt" height="162.000000pt" viewBox="0 0 162.000000 162.000000"
 preserveAspectRatio="xMidYMid meet">
<metadata>
Created by potrace 1.14, written by Peter Selinger 2001-2017
</metadata>
<g transform="translate(0.000000,162.000000) scale(0.100000,-0.100000)"
fill="#000000" stroke="none">
<path d="M1080 1344 c-51 -15 -150 -65 -150 -75 0 -4 -8 -10 -18 -13 -25 -8
-159 -141 -225 -223 -46 -58 -103 -137 -242 -340 -12 -17 -28 -38 -36 -47 -18
-20 -47 -57 -103 -131 -25 -33 -49 -64 -54 -70 -4 -5 -25 -33 -47 -62 -21 -28
-53 -60 -72 -70 -18 -9 -33 -21 -33 -26 0 -4 -4 -6 -9 -2 -5 3 -12 1 -16 -5
-3 -5 2 -11 12 -11 38 -3 169 2 203 7 19 3 311 7 648 9 338 2 616 5 618 8 3 2
-20 16 -50 31 -74 36 -119 78 -168 156 -145 229 -219 533 -173 710 9 36 20 69
23 75 4 5 8 19 9 29 2 11 9 26 15 33 27 32 -48 42 -132 17z"/>
</g>
</svg>
